<?xml version="1.0" standalone="no"?>
<!DOCTYPE svg PUBLIC "-//W3C//DTD SVG 20010904//EN"
 "http://www.w3.org/TR/2001/REC-SVG-20010904/DTD/svg10.dtd">
<svg version="1.0" xmlns="http://www.w3.org/2000/svg"
 width="800.000000pt" height="800.000000pt" viewBox="0 0 800.000000 800.000000"
 preserveAspectRatio="xMidYMid meet">
<metadata>
Created by potrace 1.11, written by Peter Selinger 2001-2013
</metadata>
<g transform="translate(0.000000,800.000000) scale(0.100000,-0.100000)"
fill="#000000" stroke="none">
<path d="M5087 7619 c-64 -33 -127 -91 -153 -141 -10 -18 -19 -65 -22 -106 -6
-87 18 -164 80 -257 36 -54 39 -64 33 -104 -8 -56 -55 -105 -111 -119 -21 -5
-241 -48 -489 -97 -247 -48 -453 -91 -456 -94 -4 -4 131 -800 173 -1020 5 -27
68 -61 113 -61 41 0 114 37 143 73 23 28 141 61 217 61 86 0 135 -23 193 -90
137 -155 97 -408 -77 -483 -60 -26 -173 -37 -225 -23 -21 6 -51 8 -67 5 -34
-7 -109 -70 -138 -116 l-20 -33 104 -505 c58 -277 105 -505 105 -505 0 -1
-201 -41 -447 -89 -407 -80 -451 -90 -476 -114 -68 -62 -76 -139 -24 -213 19
-26 46 -74 61 -107 59 -132 42 -237 -52 -330 -31 -31 -81 -69 -111 -85 -48
-26 -60 -28 -120 -23 -226 19 -334 154 -296 370 17 98 9 140 -35 191 -29 32
-85 56 -131 56 -31 0 -978 -206 -986 -214 -4 -3 40 -227 97 -496 110 -523 113
-554 73 -622 -35 -60 -62 -71 -191 -79 -196 -12 -306 -69 -359 -187 -25 -56
-23 -203 4 -262 77 -171 258 -208 476 -98 84 42 153 54 199 35 20 -9 43 -26
51 -39 9 -12 54 -229 101 -482 47 -252 87 -460 89 -462 2 -2 224 43 493 101
269 58 501 105 515 105 50 0 127 -30 149 -58 24 -29 24 -52 0 -194 -24 -149
14 -268 104 -323 45 -27 58 -30 157 -33 127 -5 191 11 272 67 155 108 161 253
20 483 -56 91 -46 165 28 203 41 22 730 175 2269 506 717 154 1306 281 1307
283 2 1 -24 134 -57 295 -33 160 -60 294 -60 296 0 3 -22 -4 -49 -14 -136 -54
-137 -54 -983 -58 l-788 -4 0 -340 c0 -326 -1 -340 -20 -359 -19 -19 -33 -20
-245 -20 -212 0 -226 1 -245 20 -20 20 -20 29 -18 1165 l3 1144 23 23 23 23
987 0 988 0 -49 255 c-90 468 -239 1175 -257 1215 -21 49 -47 73 -97 91 -62
22 -95 16 -194 -30 -52 -25 -122 -49 -156 -56 -148 -26 -256 47 -308 209 -47
144 35 308 178 358 41 14 78 18 177 16 108 -2 131 1 167 18 44 21 83 81 83
130 0 23 -200 970 -207 978 -2 3 -217 -42 -479 -98 -499 -108 -517 -110 -568
-70 -47 37 -50 54 -51 224 0 145 -2 164 -22 201 -52 97 -145 144 -282 144 -64
-1 -85 -6 -134 -31z"/>
<path d="M1591 7060 c-722 -153 -1315 -280 -1317 -282 -3 -4 553 -2678 558
-2683 2 -1 228 45 503 101 275 57 513 103 528 104 41 0 84 -26 103 -62 16 -31
16 -65 -2 -264 -17 -188 92 -317 280 -331 90 -7 178 20 252 76 115 87 132 247
42 379 -44 64 -87 162 -93 212 -7 55 16 106 61 132 35 20 247 69 684 158 168
34 307 64 309 66 2 2 -35 229 -83 504 l-86 501 42 50 c58 66 94 83 166 74 165
-19 259 -1 335 65 58 51 88 121 94 221 5 68 3 83 -21 135 -45 99 -106 147
-203 160 -70 9 -157 -16 -290 -82 -95 -48 -118 -56 -149 -51 -43 7 -107 47
-128 79 -11 18 -226 979 -226 1012 0 3 -10 6 -22 5 -13 0 -614 -126 -1337
-279z"/>
<path d="M5803 3584 c-10 -4 -13 -86 -13 -360 l0 -355 703 3 702 3 60 30 c108
54 141 144 133 365 -7 183 -36 243 -143 292 l-50 23 -690 2 c-379 1 -696 -1
-702 -3z"/>
</g>
</svg>
